<?xml version="1.0" encoding="utf-8"?>
<!-- Generator: Adobe Illustrator 21.1.0, SVG Export Plug-In . SVG Version: 6.00 Build 0)  -->
<svg version="1.1" xmlns="http://www.w3.org/2000/svg" xmlns:xlink="http://www.w3.org/1999/xlink" x="0px" y="0px"
	 viewBox="0 0 1920 1080" style="enable-background:new 0 0 1920 1080;" xml:space="preserve">
<style type="text/css">
	.st0{display:none;}
	.st1{fill:#CB303F;}
	.st2{fill:#E64238;}
	.st3{fill:#00B8AE;}
	.st4{fill:#D35716;}
	.st5{fill:#F2C515;}
	.st6{fill:#ED9916;}
	.st7{fill:#943DFF;}
</style>
<g id="plantilla" class="st0">
	
		<image style="display:inline;overflow:visible;" width="413" height="550" xlink:href="../../Desktop/fondoEjemplo.jpg"  transform="matrix(1.9613 0 0 1.9613 452 -4)">
	</image>
</g>
<g id="Capa_2">
	<path class="st1" d="M1286.2-14.9c-1.4,213.5-2.7,427-4.1,640.4c-54.1,156.6-108.2,313.2-162.3,469.8c46.3-1.4,92.6-2.7,138.9-4.1
		c34.1-155.2,68.3-310.4,102.4-465.7c-0.5-213.5-0.9-427-1.4-640.4C1335.3-14.9,1310.7-14.9,1286.2-14.9z"/>
	<path class="st2" d="M1457.6-14.9c-26.9,0-53.8,0-80.6,0c-0.5,214.5-1,429-1.5,643.5c-32.5,155.6-64.9,311.1-97.4,466.7
		c46.3-0.3,92.6-0.7,138.9-1c19.8-175.3,31-331.7,37.5-464.6"/>
	<path class="st3" d="M1474.7-12.9"/>
	<path class="st4" d="M1468.7,632.3c-3,109.3-10.5,267.6-31.4,463c46.3-0.3,92.6-0.7,138.9-1c-9.1-154.7-18.3-309.4-27.4-464
		c-0.1-72.7-0.1-145.4,0-218.1c0.1-143,0.5-286.1,1-429.1c-24.7-0.3-49.4-0.7-74-1c-1,93.3-2.4,236.5-4.1,413.6
		C1470.4,537.2,1470.2,577.2,1468.7,632.3z"/>
	<path class="st3" d="M1648.2,1095.3"/>
	<path class="st3" d="M1733.4,1100"/>
	<path class="st5" d="M1662.4-16.9c25,0.3,50,0.7,75,1c2,215.4,4.1,430.9,6.1,646.3l157.2,464.9h-138.9
		c-32.5-155-64.9-309.9-97.4-464.9C1663.7,414.6,1663.1,198.8,1662.4-16.9z"/>
	<polygon class="st6" points="1602.5,1095.3 1740.5,1095.3 1649.2,631 1645.1,-19 1569.1,-19 1569.1,632 	"/>
	<path class="st7" d="M1902.1,109.8"/>
</g>
</svg>
