<?xml version="1.0" encoding="utf-8"?>
<!-- Generator: Adobe Illustrator 21.1.0, SVG Export Plug-In . SVG Version: 6.00 Build 0)  -->
<svg version="1.1" id="Capa_1" xmlns="http://www.w3.org/2000/svg" xmlns:xlink="http://www.w3.org/1999/xlink" x="0px" y="0px"
	 viewBox="0 0 300 300" style="enable-background:new 0 0 300 300;" xml:space="preserve">
<style type="text/css">
	.st0{fill:#AFAFF9;}
	.st1{opacity:0.65;fill:#AFAFF9;}
	.st2{opacity:0.61;fill:#AFAFF9;}
	.st3{fill:#AFAFF9;stroke:#FF00CC;stroke-miterlimit:10;}
	.st4{fill:#FFB093;}
	.st5{fill:#F78663;}
	.st6{fill:#62F6FF;}
	.st7{fill:#AFAFF9;stroke:#FF00CC;stroke-width:0.75;stroke-miterlimit:10;}
	.st8{fill:#003A81;}
	.st9{fill:#5B5BA5;}
</style>
<title>Succes</title>
<path class="st0" d="M148.4,261.7l7.3-12.2c0.4-0.7,0.1-1.5-0.5-1.8c-0.6-0.3-1.4-0.1-1.8,0.5l-7.3,12.2c-0.4,0.7-0.1,1.5,0.5,1.8
	C147.2,262.5,148,262.3,148.4,261.7z"/>
<path class="st1" d="M219.2,147.5l-8.6,21.1c-0.7,1.6,2,2.3,2.6,0.7l8.6-21.1C222.5,146.6,219.8,145.9,219.2,147.5z"/>
<path class="st0" d="M141,248.5c3.7-7.5,7.8-14.9,12.1-22.1c0.4-0.7,0.1-1.5-0.6-1.8c-0.6-0.3-1.4-0.1-1.8,0.5
	c-4.4,7.2-8.4,14.5-12.1,22.1C137.9,248.7,140.2,250.1,141,248.5L141,248.5z"/>
<path class="st0" d="M48,256.6l11.3-19.5c0.4-0.7,0.1-1.5-0.5-1.8c-0.6-0.3-1.4-0.1-1.8,0.5l-11.3,19.5c-0.4,0.7-0.1,1.5,0.5,1.8
	C46.8,257.4,47.6,257.2,48,256.6L48,256.6z"/>
<path class="st2" d="M66.9,178.1l12.6-24.7c0.8-1.6-1.6-2.9-2.4-1.4l-12.6,24.7C63.7,178.3,66.1,179.7,66.9,178.1z"/>
<path class="st2" d="M70.6,206.6l12.3-25.2c0.8-1.6-1.6-3-2.4-1.4l-12.3,25.2C67.5,206.8,69.9,208.2,70.6,206.6z"/>
<path class="st3" d="M141.2,181.6c-0.3-0.4-0.7-0.5-1.2-0.4c-6.2,0.8-9.9,4.4-12.7,9.8c-2.4,4.3-4.6,8.7-6.5,13.2
	c-1.6,3-3,6.1-4.2,9.3c-0.1,0.3-0.1,0.6,0,0.9c0.1,0.7,0.7,1.2,1.4,1.2c5.5,0.1,9.4-5.2,12.5-9.3c0.8-1,1.5-2,2.2-3.1
	c1.9-2.4,3.5-4.9,4.9-7.6c2.2-3.8,3.9-7.9,4.9-12.2c0.2-0.8-0.3-1.6-1.1-1.8C141.4,181.6,141.3,181.6,141.2,181.6z"/>
<path class="st3" d="M96.4,236.6C96.4,236.6,96.4,236.6,96.4,236.6c-0.3,0.1-0.5,0.2-0.6,0.4c-10.7,10.6-18.5,24.4-15.1,39.9
	c0.2,0.8,1.1,1.3,1.9,1c0.1,0,0.2-0.1,0.3-0.1c12.3-7.7,14.3-27.1,16.2-40C99.4,236.1,97.4,235,96.4,236.6z"/>
<path class="st2" d="M47.1,86.1c1.2-1.1,2.7-2,4.4-2.4c1.1-0.3,2.1-0.3,3.2-0.2c0-0.3,0-0.5,0-0.8c-2,0-3.9-0.5-5.6-1.4
	c-1.5-0.8-2.7-2.1-3.5-3.5c-0.8-1.4-1.4-3-1.6-4.6c-0.1-0.5-0.2-0.9-0.3-1.4c-0.2,0-0.4,0-0.6,0c-0.5,5.8-5.2,11.2-10.9,10.6l-0.1,0
	c-0.1,0-0.2,0-0.4,0.1c0,0.2,0,0.4,0,0.7c3.1,0.2,6,1.7,8.1,4.1c1.7,2,2.7,4.5,2.8,7c0.2,0,0.3,0,0.5,0c0-1.6,0.4-3.1,1.1-4.5
	C44.9,88.3,45.9,87.1,47.1,86.1z"/>
<path class="st1" d="M285.2,182c1.2-1.1,2.7-2,4.4-2.4c1.1-0.3,2.1-0.3,3.2-0.2c0-0.3,0-0.5,0-0.8c-2,0-3.9-0.5-5.6-1.4
	c-1.5-0.8-2.7-2-3.5-3.5c-0.8-1.4-1.4-3-1.6-4.6c-0.1-0.5-0.2-0.9-0.3-1.4c-0.2,0-0.4,0-0.6,0c-0.5,5.8-5.2,11.2-10.9,10.6
	c0,0,0,0-0.1,0c-0.1,0-0.2,0-0.4,0.1l0,0.7c3.1,0.2,6,1.7,8.1,4.1c1.7,2,2.7,4.5,2.8,7c0.2,0,0.3,0,0.5,0c0-1.6,0.4-3.1,1.1-4.5
	C283.1,184.3,284,183,285.2,182z"/>
<circle class="st1" cx="226.1" cy="213.1" r="4.7"/>
<path class="st2" d="M45.7,143.3c0.8-0.7,1.7-1.2,2.8-1.5c0.7-0.2,1.4-0.2,2.1-0.1c0-0.2,0-0.3,0-0.5c-1.2,0-2.5-0.3-3.6-0.9
	c-0.9-0.5-1.7-1.3-2.2-2.2c-0.5-0.9-0.9-1.9-1-2.9c-0.1-0.3-0.1-0.6-0.2-0.9c-0.1,0-0.3,0-0.4,0c-0.3,3.7-3.3,7.1-6.9,6.8l0,0
	c-0.1,0-0.2,0-0.2,0l0,0.4c2,0.1,3.8,1.1,5.1,2.6c1.1,1.3,1.7,2.8,1.8,4.5c0.1,0,0.2,0,0.3,0c0-1,0.3-2,0.7-2.9
	C44.3,144.8,44.9,144,45.7,143.3z"/>
<circle class="st0" cx="190.3" cy="218.3" r="2.2"/>
<circle class="st1" cx="214.2" cy="267" r="2.2"/>
<circle class="st2" cx="79.9" cy="107.1" r="2.2"/>
<circle class="st2" cx="9.1" cy="121.5" r="4.1"/>
<circle class="st2" cx="79.9" cy="57.3" r="2.2"/>
<circle class="st0" cx="13.6" cy="220.5" r="2.2"/>
<circle class="st2" cx="45.4" cy="174.7" r="2.2"/>
<circle class="st0" cx="264" cy="125.3" r="2.2"/>
<path class="st0" d="M258.4,72.2c0.5-0.5,1.2-0.9,1.9-1c0.5-0.1,0.9-0.1,1.4-0.1v-0.4c-0.9,0-1.7-0.2-2.4-0.6
	c-0.6-0.4-1.2-0.9-1.5-1.5c-0.4-0.6-0.6-1.3-0.7-2c0-0.2-0.1-0.4-0.1-0.6c-0.1,0-0.2,0-0.3,0c-0.2,2.5-2.3,4.9-4.8,4.6h0
	c-0.1,0-0.1,0-0.2,0l0,0.3c1.4,0.1,2.6,0.7,3.5,1.8c0.7,0.9,1.2,1.9,1.2,3.1c0.1,0,0.1,0,0.2,0c0-0.7,0.2-1.3,0.5-2
	C257.5,73.2,257.9,72.6,258.4,72.2z"/>
<circle class="st1" cx="267.1" cy="247.5" r="2.2"/>
<circle class="st0" cx="246.9" cy="35.5" r="2.2"/>
<circle class="st2" cx="21.8" cy="38.2" r="2.2"/>
<path class="st0" d="M105.2,32.4c0.5-0.5,1.2-0.9,1.9-1c0.5-0.1,0.9-0.1,1.4-0.1v-0.4c-0.9,0-1.7-0.2-2.4-0.6
	c-0.6-0.4-1.2-0.9-1.5-1.5c-0.4-0.6-0.6-1.3-0.7-2c0-0.2-0.1-0.4-0.1-0.6c-0.1,0-0.2,0-0.3,0c-0.2,2.5-2.3,4.9-4.8,4.6l0,0
	c-0.1,0-0.1,0-0.2,0c0,0.1,0,0.2,0,0.3c1.4,0.1,2.6,0.7,3.5,1.8c0.7,0.9,1.2,1.9,1.2,3.1c0.1,0,0.1,0,0.2,0c0-0.7,0.2-1.3,0.5-2
	C104.3,33.4,104.7,32.8,105.2,32.4z"/>
<path class="st2" d="M89.6,41.6c-1.4,1.8-2.7,3.5-4,5.4c-1.2,1.7-3,3.7-3.4,5.8c0,0.2,0.2,0.5,0.4,0.3c1.6-1.1,2.5-3.1,3.5-4.8
	c1.3-2.1,2.6-4.3,3.7-6.5C90,41.7,89.8,41.4,89.6,41.6L89.6,41.6z"/>
<path class="st4" d="M213.8,104.2c4.5-4.4,9.8-7.8,15.7-10c-2.5-5.5-5.3-10.9-8.4-16.2c-3.8-5-7.9-9.9-13.2-13.3
	c-1.1-0.7-2,0.8-1.3,1.7l1.5,1.7c-1.1-0.8-2.1-1.5-3.2-2.2c-0.2-0.1-0.3-0.2-0.5-0.2c-1.2-0.6-2.1,1-1.3,1.9l1.2,1.5
	c-0.9-0.6-1.9-1.2-3-1.7c-0.7-0.4-1.5-0.1-1.9,0.6c-0.4,0.7-0.1,1.5,0.5,1.9c0.2,0.1,0.4,0.3,0.6,0.4c0,0.1,0.1,0.2,0.1,0.2
	c2.5,2.6,4.2,5.8,4.8,9.4c-0.5-1.4-1.1-2.7-1.9-3.9c-0.4-0.6-1.3-0.8-1.9-0.4c-0.2,0.1-0.4,0.4-0.5,0.6c-0.2,0.2-0.4,0.5-0.3,0.8
	c0.3,3.5,0,8.2,2.7,10.7c2.4,2.2,4.6,3.7,6.4,6.6S213.7,104.1,213.8,104.2z"/>
<path class="st4" d="M201.2,31.4c0-0.2,0-0.5-0.1-0.7c-0.1-0.5-0.4-0.8-0.9-0.9c-0.3-0.1-0.6-0.2-1-0.1c0.6-0.8,0.4-2-0.4-2.6
	c-0.1-0.1-0.3-0.2-0.5-0.2c-2.9-1-5.7-2.1-8.6-3c-2.2-0.7-4.9-2-7.2-1.9c-0.7,0-1.4,0.5-1.6,1.2c0,0,0,0.1,0,0.1
	c-0.2,0.1-0.3,0.3-0.4,0.4c-5.4,9.9-11.1,19.5-16.9,29.2c2.2,0.5,18.9,7.5,20.2,7.9c3.1-4.4,5.7-9.1,7.8-14c2.1-2.2,4.5-4,7.1-5.5
	c0.2-0.1,0.4-0.3,0.6-0.5c0.8-0.2,1.3-0.9,1.2-1.7c-0.1-2.4,0.1-4.8,0.7-7.1C201.3,31.9,201.3,31.7,201.2,31.4z"/>
<path class="st5" d="M184.5,29.3c0.4-1,0.9-2,1.4-2.9c0.6-0.9,1-1.8,1.3-2.7c0.1-0.4-0.2-0.8-0.6-0.9c-0.3-0.1-0.5,0-0.7,0.2
	c-0.8,0.8-1.3,1.7-1.7,2.7c-0.5,1-0.9,2-1.2,3C182.7,29.6,184.1,30.2,184.5,29.3L184.5,29.3z"/>
<path class="st5" d="M191.3,31.9c1.1-1.9,1.9-3.9,3.1-5.7c0.6-0.8-0.8-1.6-1.4-0.8c-1.3,1.8-2.3,3.9-3,6c-0.1,0.4,0.1,0.7,0.5,0.8
	C190.8,32.3,191.1,32.2,191.3,31.9L191.3,31.9z"/>
<path class="st5" d="M194.1,38.5c2.3-3,4.3-6.3,5.9-9.8c0.5-1.2-1.4-1.9-2-0.9c-2,3.2-3.3,6.7-4.8,10.2c-0.1,0.3,0,0.6,0.2,0.7
	C193.7,38.8,194,38.7,194.1,38.5z"/>
<path class="st5" d="M205.2,70.7c1,1,2,1.9,3,2.9c0.9,1.1,1.8,2.1,2.8,3c0.2,0.2,0.6,0.2,0.8,0c0.2-0.2,0.2-0.4,0.1-0.7
	c-0.8-1.2-1.8-2.3-2.9-3.2c-1-1-2.1-1.9-3.3-2.8C205.3,69.6,204.8,70.4,205.2,70.7L205.2,70.7z"/>
<path class="st5" d="M208.8,69c0.9,1,1.8,2.1,2.7,3.2c0.6,1,1.3,1.9,2.2,2.7c0.4,0.2,0.8,0.1,1-0.3c0.1-0.2,0.1-0.4,0.1-0.5
	c-0.6-1.1-1.4-2.1-2.4-2.8c-1-1-2-1.9-3.1-2.8c-0.1-0.1-0.4-0.1-0.5,0C208.7,68.7,208.7,68.9,208.8,69L208.8,69z"/>
<path class="st3" d="M195.3,169.2c-3.2-8.8-12.2-8.4-20.1-8.2l-22.7,0.4l-6.3-0.5c0-0.1-17.4-5.4-25.7-9.3c-1.2-0.4-2.4-0.9-3.6-1.3
	c-5.8,13.7-11.1,27.6-15.9,41.7c-2.7,7.8-5.2,15.7-7.5,23.6c-2,6.6-4.8,13.8-5.5,20.7c-1,11,10.9,11.8,16.4,4.3
	c1.5-2.1,2.7-4.4,3.6-6.9c1.7-2.9,3.2-5.9,4.5-8.9c6.9-12.6,13.6-25.3,20.1-38c2.7-0.5,5.5-1,8.2-1.5c-4.4,4.5-7,12-0.7,15.7
	c1,0.6,2.2,1,3.4,1.2c0.3,0.2,0.6,0.2,1,0.2c0.1,0,0.2,0,0.3,0l0.1,0c0.2,0.1,0.5,0.2,0.8,0.1l0.4-0.1c2,0,3.9-0.1,5.9-0.4
	c3.8-0.4,7.5-1,11.2-1.8c2.5-0.5,5-1,7.5-1.6c6.8-1,14-2.6,19.2-7.3C195.8,185.9,197.9,176.5,195.3,169.2z"/>
<path class="st3" d="M173.5,179.9c-0.7-0.6-1.4-1.2-2.1-1.8l1.1-1.3c0.6-0.5,1-1.2,1.3-1.9c0.1-0.4-0.1-0.7-0.5-0.8
	c-0.2,0-0.3,0-0.5,0.1c-0.7,0.3-1.1,1.2-1.5,1.7c-0.4,0.6-0.8,1.1-1.2,1.7c-0.1,0-0.2,0.1-0.3,0.2c-8.7,1.7-17.2,3.8-25.6,6.3
	c-0.3,0.1-0.4,0.4-0.3,0.6c0.1,0.2,0.3,0.4,0.6,0.3c8.5-1.6,16.9-3.8,25.3-5.8c0.8,0.6,1.5,1.3,2.3,2c0.7,0.7,1.3,1.7,2.2,2
	c0.5,0.1,1.2-0.3,1.1-0.9C175.3,181.4,174.3,180.6,173.5,179.9z"/>
<path class="st3" d="M140.3,159.7c-1.1,3.9-2.1,7.8-3.1,11.7c-0.9,0-1.8-0.2-2.6-0.6c-1.2-0.9-0.2-2.8,0.1-4c0.7-2.7,1.5-5.4,2.4-8
	c0.4-1.1-1.3-1.5-1.7-0.5c-1,2.3-1.8,4.6-2.5,6.9c-0.5,1.7-1.4,3.8-1.4,5.6c0.1,2.4,3.5,2.6,5.6,2.7c0.3,0.3,0.9,0.3,1.1-0.1
	c0,0,0.1-0.1,0.1-0.1c0.3-0.2,0.4-0.6,0.3-1c1.1-4.1,2.1-8.2,3.1-12.2c0.1-0.4-0.2-0.8-0.6-0.9C140.8,159.1,140.5,159.3,140.3,159.7
	z"/>
<path class="st3" d="M112.8,164.4c5.6-1.3,10.9-3.9,14-8.9c0.5-0.8-0.8-1.5-1.3-0.7c-2.9,4.7-7.9,7.1-13.1,8.6
	c-0.3,0.1-0.5,0.4-0.4,0.7C112.2,164.3,112.5,164.4,112.8,164.4L112.8,164.4z"/>
<path class="st3" d="M243,120c0.1-0.6,0.2-1.2,0.1-1.8c0-0.2-0.1-0.3-0.2-0.5c0.1-1.8-1.2-3.7-2.1-5.2c-1.1-1.8-2.1-4.3-3.6-6
	c-0.9-1.7-1.8-3.4-2.7-5.1c-0.8-1.5-3-0.2-2.2,1.3c1.6,3.2,3.2,6.4,4.8,9.5c0.9,1.8,2.1,3.5,2.9,5.3c-0.2,1.7-0.5,3.3-1,4.9
	c-5.2,6.7-16.3,10.8-23.2,13.6c-8.4,3.4-17.1,6-25.7,8.7c-0.4,0.1-0.6,0.5-0.5,0.9c0,0.1,0,0.1,0.1,0.2c-2.8,4.9-5.6,9.8-8.4,14.8
	c-0.2,0.4-0.1,0.8,0.3,1c0.3,0.2,0.8,0.1,1-0.3c3-5,6-10,9-15c0.1-0.2,0.1-0.3,0.1-0.5c10.9-2.8,21.7-5.9,31.9-10.6
	c5.6-2.6,16.3-6.9,18.9-13.7C242.9,121.1,243,120.6,243,120z"/>
<path class="st6" d="M233.8,102l0-0.2c0-0.2-0.2-0.2-0.4-0.2c-0.1,0-0.2,0.1-0.2,0.2l0,0.2c0,0.2,0.1,0.4,0.3,0.4s0.4-0.1,0.4-0.3
	C233.9,102.1,233.9,102.1,233.8,102z"/>
<path class="st4" d="M192.5,71.6c-0.1-0.1-0.1-0.2-0.2-0.2c-3.9,2.1-8,3.9-12,6c-3.8,2-7.8,3.7-11.3,6.2c-1.5,1.9-2.5,4.1-1.2,6.1
	c1,1.6,3,2.3,4.8,1.6c-0.3,0.5-0.7,1-1,1.4c-1.9,2.8-3.5,5.8-4.7,9c-0.2,0.5,0.2,2.7,0.7,1.6c1.4-2.9,3.1-5.7,5-8.3
	c0.8-1.1,1.6-2.1,2.5-3c3.7,6.6,9.5,10,18,5.2c0.1-0.1,0.3-0.2,0.4-0.3c-1.5,2.4-3,4.9-4.4,7.4c-2.1,3.8-4.8,8-5.5,12.4
	c-0.1,0.5,0.5,1,0.9,0.5c2.7-3.5,4.2-8,6.2-11.9c2-3.8,4.1-7.5,6.3-11.1c1.7-1.6,2.6-3.8,2.6-6.1C199.7,82.5,195.3,76,192.5,71.6z"
	/>
<path class="st3" d="M211.9,107.6c3.4-3.1,7-5.8,10.9-8.2c3.5-2.2,7.4-3.7,10.9-5.7c0.2-0.1,0.2-0.4,0.1-0.5
	c-0.1-0.1-0.3-0.2-0.4-0.2c-8.4,1.7-16.4,7.8-22.6,13.6C210.2,107.2,211.2,108.3,211.9,107.6z"/>
<path class="st3" d="M234.3,95.6c-4.3,0.4-8.5,3.3-12.1,5.5c-3.5,2.1-8.3,4.5-10.5,8c-0.1,0.1,0,0.3,0.1,0.4c0.1,0,0.1,0,0.2,0
	c0.6-0.1,1.1-0.3,1.7-0.5c-0.1,0.3-0.1,0.5,0,0.8c0.2,0.5,0.4,0.9,0.6,1.4c0.1,0.3,0.2,0.6,0.4,0.9c-9.2,1.2-18.4,3.8-27.6,5.3
	c0-0.3-0.1-0.5-0.3-0.7c-6.2-6.1-12-12.6-17.4-19.4c-0.1-0.1-0.2-0.2-0.4-0.3c-0.4-0.4-1-0.3-1.3,0c-0.1,0.1-0.1,0.2-0.2,0.3
	c-2.1,4.2-4.1,8.5-5.9,12.9c-0.1,0.2-0.1,0.5,0,0.8c-0.1,0.5,0.2,1.1,0.8,1.2c0.2,0,0.4,0,0.5,0c3.5-1.2,7.1-1.9,10.8-2.1
	c0.3,4.4,0.5,8.9,0.8,13.3c-0.1,0.3-0.1,0.7,0.1,1c0.1,0.6,0.6,1.1,1.2,1c0.3,0,0.6-0.2,0.7-0.4c0,0,0,0,0,0l0.7-0.6
	c0.2,0,0.3-0.1,0.4-0.2c2.4-1.6,4.9-3.1,7.4-4.5c10.2-0.9,21.6-1.8,31-5.7c0.1,0,0.2-0.1,0.3-0.2c0.9,0.6,1.8,1.1,2.7,1.7
	c0.9,0.5,2,1.4,3.1,1.1c0.3-0.1,0.5-0.4,0.4-0.7c-0.4-1.1-1.7-1.3-2.7-1.8c-1.1-0.5-2.2-1.2-3.3-1.8c0,0,0-0.1,0-0.1
	c0.2-1.1-0.6-2.4-1.1-3.3c-0.1-0.2-0.2-0.3-0.4-0.4c2.9-1.5,5.6-3.9,8.2-5.5c3.7-2.2,8.1-3.6,11.5-6.3c0.2-0.3,0.2-0.7,0-0.9
	C234.6,95.7,234.4,95.6,234.3,95.6z"/>
<path class="st3" d="M183.9,60.8c-2.9-2.9-7.4-4.2-11.2-5.7c-2.9-1.3-5.8-2.4-8.8-3.3c-1.5-0.6-3.1-1-4.6-1.3
	c-0.2-0.1-0.5-0.2-0.7-0.3c-0.4-0.2-1,0-1.2,0.4c-0.1,0.2-0.1,0.4,0,0.7c0,0.3,0.3,0.6,0.6,0.7c0.2,0,0.4,0.1,0.6,0.1
	c1.2,0.6,2.5,1.1,3.9,1.4c2.9,1.3,6.1,2,9,3.2c4,1.6,8.1,4,12.4,4.5C183.9,61.1,184,60.9,183.9,60.8z"/>
<path class="st3" d="M157.4,53c-1.1-0.4-1.6,1.4-0.5,1.8c8.9,3.2,17.4,7.4,26.3,10.4c0.1,0,0.1-0.1,0.1-0.2
	C175.6,59.3,166.4,55.9,157.4,53z"/>
<path class="st7" d="M157.4,56.5c-15.5,30-31.3,60.6-42.9,92.3c-0.1,0.5,0.2,1.1,0.7,1.2c0.1,0,0.2,0,0.3,0c2.4,1.2,4.9,2.2,7.5,3.1
	c9.4,4.5,20.2,8.7,29.9,8.6c0.1,0,0.1-0.1,0.1-0.1c0,0,0-0.1-0.1-0.1c-5.2-3.2-11.2-4.7-16.9-6.7c-6.3-2.2-12.5-4.8-18.8-7.1
	C132,118,145,87.6,160.1,58.1C161.1,56.3,158.3,54.7,157.4,56.5z"/>
<path class="st8" d="M192.8,80.5c0.7-1.1,1.2-2.3,1.8-3.5c0.6-1,1-2.1,1.2-3.2c0-0.4-0.4-0.8-0.8-0.8c-0.2,0-0.4,0.1-0.5,0.2
	c-0.7,0.9-1.2,1.9-1.6,3c-0.5,1.1-1.1,2.2-1.5,3.4C190.9,80.6,192.2,81.5,192.8,80.5L192.8,80.5z"/>
<path class="st8" d="M177,85.6c2.2,0,5.1,0,7.1-1c0.7-0.3,0.3-1.3-0.4-1.3c-1.1,0-2.2,0.1-3.3,0.4c-1.1,0.1-2.2,0.2-3.4,0.3
	c-0.5,0-0.8,0.4-0.8,0.9C176.2,85.3,176.6,85.6,177,85.6L177,85.6z"/>
<path class="st8" d="M194.4,80.8c0.2,0.3,0.5,0.6,0.8,0.6c0.4,0.1,0.9-0.2,1-0.6c0-0.1,0-0.1,0-0.2c0-0.4-0.1-0.7-0.4-1
	C195.1,78.9,193.8,79.9,194.4,80.8L194.4,80.8z"/>
<path class="st8" d="M182.8,87.3c0.2,0.3,0.5,0.6,0.8,0.6c0.4,0.1,0.9-0.2,1-0.6c0-0.1,0-0.1,0-0.2c0-0.4-0.1-0.7-0.4-1
	C183.6,85.4,182.2,86.5,182.8,87.3L182.8,87.3z"/>
<path class="st5" d="M183.9,91.4c2.1,1.9,5.1,2.3,7.6,1c0.8-0.4,0.1-1.6-0.7-1.2c-2,0.9-4.3,0.6-6-0.7
	C184.2,90,183.3,90.8,183.9,91.4z"/>
<path class="st5" d="M192.7,83.7c-0.5-1.1-1.1-2.2-1.8-3.2c-0.3-0.5-1-0.6-1.4-0.3c-0.1,0-0.1,0-0.2,0c-1.7,0.5-4.5,1.4-4,3.2
	c0.5,1.7,1.7,3.9,3.6,4.8c1.7,0.7,4.1,0.2,4.5-1.5C193.5,85.7,193.3,84.6,192.7,83.7z"/>
<path class="st0" d="M21,208.7c-0.9,1.6-1.9,3.1-2.9,4.5c-1,1.2-2,2.6-2.7,4c-0.1,0.2,0.1,0.4,0.3,0.5c0.1,0,0.2,0,0.3,0
	c2.8-1.9,3.9-6,5.2-8.9C21.2,208.7,21.1,208.6,21,208.7L21,208.7z"/>
<path class="st1" d="M237,189.5c-3.4,5-6.8,10.3-8.9,16c-0.5,1.3,1.7,2.3,2.3,1c2.4-5.6,4.3-11.3,7-16.8c0.1-0.1,0-0.3-0.1-0.3
	S237,189.3,237,189.5L237,189.5L237,189.5z"/>
<path class="st1" d="M273.4,233.6c-1.6,2.8-3.1,5.8-5,8.5c-0.7,1,1.2,2,1.6,0.7c1-3.1,2.5-6.1,3.7-9
	C273.9,233.6,273.5,233.4,273.4,233.6L273.4,233.6z"/>
<path class="st2" d="M51.4,132.4c2.9-5.4,6.7-10.3,9.5-15.8c0.2-0.4,0.1-0.9-0.3-1.1c-0.3-0.2-0.7-0.1-1,0.1
	c-4.5,4.3-7.5,10.1-10.3,15.6C48.6,132.6,50.6,133.8,51.4,132.4z"/>
<path class="st1" d="M288.5,173.3c2.6-6.2,5.9-12.9,6.5-19.7c0-0.3-0.2-0.5-0.5-0.5c-0.1,0-0.2,0.1-0.3,0.1
	c-4.3,5-6.8,11.9-9.3,17.9C283.8,173.6,287.4,175.8,288.5,173.3L288.5,173.3z"/>
<path class="st0" d="M175.9,258.5c-1.1,0-2.1-0.4-3-0.9c-0.6-0.4-1.1-0.8-1.6-1.4c-0.1,0.1-0.2,0.2-0.4,0.4c0.9,0.9,1.5,2,1.9,3.2
	c0.3,1,0.3,2.1,0,3.2c-0.2,1-0.7,2-1.3,2.8c-0.2,0.2-0.3,0.5-0.5,0.7c0.1,0.1,0.2,0.2,0.3,0.3c2.8-2.4,7.4-2.7,9.7,0.1l0,0
	c0.1,0,0.1,0.1,0.2,0.1l0.3-0.3c-1.3-1.5-2-3.5-1.8-5.5c0.1-1.6,0.8-3.2,1.9-4.4c-0.1-0.1-0.1-0.2-0.2-0.2c-0.7,0.7-1.6,1.2-2.5,1.5
	C177.9,258.5,176.9,258.6,175.9,258.5z"/>
<path class="st0" d="M181.8,254.4c2.3-4.6,5.7-9.6,6.5-14.8c0.1-0.4-0.4-0.7-0.7-0.4c-3.6,3.7-5.4,9.5-7.7,14.1
	C179.3,254.6,181.2,255.7,181.8,254.4L181.8,254.4z"/>
<path class="st9" d="M192.2,70.8c-0.1-0.3-0.2-0.5-0.5-0.7c-0.1-0.1-0.2-0.2-0.4-0.3c-8.5-3.5-17.7-3.1-26.5-0.7
	c-4,1.1-9.4,2.5-14,4.7c-1.3,0.5-2.5,1.1-3.7,1.9c-0.6,0.4-1.2,0.8-1.8,1.2c-1,0.7-2.4,1.9-2.2,3.1c-0.2,0.4,0,0.9,0.4,1.1
	c0.2,0.2,0.5,0.3,0.8,0.4c0.7,0.1,1.3,0.1,2-0.2c2.2-0.4,4.4-1,6.5-1.8l3.7-1.1c-3,1.4-5.7,3.2-8,5.6c-0.4,0.4-0.4,1.1,0,1.5
	c1.8,1.8,4.8,0.2,6.7-0.6c1.8-0.8,3.6-1.7,5.3-2.8c-0.4,0.4-0.7,0.7-1.1,1.1c-0.4,0.4-0.4,1.1,0,1.5c0.1,0.1,0.1,0.1,0.2,0.1
	c2.1,1.2,4.1,0.4,6.1-0.5c3.7-1.6,7.4-3.3,11-5.1c0,0,0.1-0.1,0.1-0.1l12.8-5.4c0.1,0,0.2-0.1,0.3-0.2
	C191.1,73.1,192.5,72.2,192.2,70.8z"/>
<path class="st3" d="M176.3,105.1c0,0-0.1,0-0.1,0c-5.7-0.8-11.5,1.2-17.3,0.7c-6.4-0.5-12.8-2-19.2-2.1c-10.6-0.2-21,2.5-30,8
	c-1.5,3.8-3.6,7.4-6.2,10.5c4-0.8,8.2-0.5,11.9,1.1c0.2,0.1,0.4,0.2,0.6,0.3c10.7-7.3,23.4-7.5,36.2-4.5c10.1,2.3,23.6,0,25.4-12.5
	c0.1-0.7-0.4-1.3-1.1-1.3C176.5,105.1,176.4,105.1,176.3,105.1z"/>
</svg>
